<svg width="296" height="88" viewBox="0 0 296 88" fill="none" xmlns="http://www.w3.org/2000/svg">
<circle cx="43.5" cy="44.5" r="38" fill="#001484" stroke="#001484" stroke-width="3"/>
<mask id="mask0_2208_366" style="mask-type:alpha" maskUnits="userSpaceOnUse" x="0" y="0" width="88" height="88">
<circle cx="44" cy="44" r="44" fill="#491D8B"/>
</mask>
<g mask="url(#mask0_2208_366)">
<path d="M40.2419 37L2.99904 74.2429L12.9986 84.2429L50.2415 47L40.2419 37Z" fill="#B2A05C"/>
<path d="M70.5002 2L34.0002 38.5L44.5002 49L81.0002 12.5L70.5002 2Z" fill="#B2A05C"/>
</g>
<path d="M36 47L73.5 84.5L83 75L36 28L10 54L19.5 63.5L36 47Z" fill="#FFE78D"/>
<path d="M144.226 45.1282C144.226 51.077 142.392 56.1983 138.724 60.4921L143.354 65.2556L138.724 69.8849L133.558 64.6518C130.114 66.6645 126.245 67.6709 121.952 67.6709C115.019 67.6709 109.629 65.4569 105.783 61.0289C101.936 56.6009 100.013 51.3454 100.013 45.2624C100.013 38.9111 102.025 33.5662 106.051 29.2276C110.076 24.889 115.444 22.7198 122.153 22.7198C128.951 22.7198 134.319 24.9338 138.255 29.3618C142.236 33.7451 144.226 39.0006 144.226 45.1282ZM136.175 45.3295C136.175 40.4542 134.923 36.5629 132.418 33.6556C129.958 30.7483 126.514 29.2947 122.086 29.2947C117.434 29.2947 113.923 30.8154 111.552 33.8569C109.227 36.8537 108.064 40.5884 108.064 45.0612C108.064 49.3997 109.204 53.1568 111.485 56.3325C113.811 59.5081 117.412 61.096 122.287 61.096C124.702 61.096 126.827 60.604 128.661 59.62L121.549 52.307L126.178 47.6777L133.558 55.1919C135.303 52.5977 136.175 49.3103 136.175 45.3295ZM197.202 42.3775H194.183L185.729 67H180.362L172.043 47.141H171.707L163.857 67H158.758L150.104 42.3775H147.152V36.876H162.449V42.3775H157.752L162.381 56.8692H162.784L170.499 36.876H174.927L183.582 56.6679H183.985L187.608 42.3775H183.113V36.876H197.202V42.3775ZM202.617 39.09C204.854 38.0166 206.844 37.2786 208.588 36.876C210.333 36.4735 212.346 36.2722 214.627 36.2722C217.981 36.2722 220.732 37.122 222.879 38.8217C225.071 40.5213 226.166 43.0708 226.166 46.4701V60.0225C226.166 61.8116 226.904 62.7062 228.38 62.7062C228.783 62.7062 229.297 62.6167 229.923 62.4378L229.991 66.3962C228.515 67.246 226.904 67.6709 225.16 67.6709C221.358 67.6709 219.301 65.6805 218.988 61.6998V61.5656C218.093 63.1311 216.818 64.54 215.163 65.7924C213.553 67.0447 211.54 67.6709 209.125 67.6709C207.023 67.6709 204.943 67.0447 202.886 65.7924C200.873 64.4953 199.867 62.2589 199.867 59.0832C199.867 55.3708 201.343 52.9332 204.295 51.7703C207.247 50.5626 210.445 49.9588 213.889 49.9588C214.738 49.9588 215.611 49.9812 216.505 50.0259C217.4 50.0706 218.227 50.1377 218.988 50.2272V48.5499C218.988 46.7608 218.674 45.1506 218.048 43.7193C217.422 42.288 215.857 41.5724 213.352 41.5724C212.413 41.5724 211.518 41.6395 210.668 41.7737C209.863 41.9079 209.08 42.1762 208.32 42.5788L207.112 47.2081L201.343 46.6043L202.617 39.09ZM218.988 55.0578V53.9843C218.227 53.8948 217.444 53.8054 216.639 53.7159C215.834 53.6265 215.007 53.5817 214.157 53.5817C212.368 53.5817 210.758 53.8948 209.326 54.521C207.94 55.1472 207.247 56.3996 207.247 58.2781C207.247 61.0065 208.7 62.3707 211.608 62.3707C213.307 62.3707 214.917 61.7669 216.438 60.5592C217.959 59.3069 218.809 57.473 218.988 55.0578ZM251.397 36.4064C253.41 36.4064 255.289 36.9655 257.033 38.0837L258.308 47.4764L252.739 48.1473L251.599 42.9813C250.704 42.534 249.944 42.3104 249.318 42.3104C248.065 42.3104 246.969 42.8248 246.03 43.8535C245.136 44.8822 244.688 46.3135 244.688 48.1473V61.4985H250.659V67H233.014V61.4985H237.509V42.4446H232.813V36.876H244.152V42.5117C244.688 40.812 245.538 39.3808 246.701 38.2178C247.909 37.0102 249.474 36.4064 251.397 36.4064ZM295.059 67H280.031V61.4985H283.519L277.213 53.9843H272.382V61.4985H275.737V67H260.708V61.4985H265.204V26.3427H260.44V20.8412H272.382V48.8183H277.548L282.849 42.4446H278.89V36.876H293.583V42.4446H289.826L282.714 50.7639L291.839 61.4985H295.059V67Z" fill="black"/>
</svg>
