<svg width="92" height="121" viewBox="0 0 92 121" fill="none" xmlns="http://www.w3.org/2000/svg">
<ellipse cx="45.7896" cy="112.856" rx="45.7896" ry="7.89476" fill="black"/>
<path fill-rule="evenodd" clip-rule="evenodd" d="M9.74615 82.8554C9.74615 82.8554 22.7388 74.8308 40.311 82.8554C48.8706 86.7642 63.3722 82.0938 72.6297 68.6448C76.0422 63.6871 77.4165 50.1341 77.4165 50.1341C77.4165 50.1341 89.7782 82.108 74.6479 97.4818C59.5175 112.855 24.5044 101.024 24.5044 101.024C24.5044 101.024 16.6302 95.37 13.8181 91.908C11.006 88.4461 9.74615 82.8554 9.74615 82.8554Z" fill="#78A9FF"/>
<path fill-rule="evenodd" clip-rule="evenodd" d="M62.9492 23.2628C62.9492 24.5495 62.5767 25.7409 61.9692 26.7731C75.3542 35.7037 85.2604 55.1946 85.2604 73.1373C85.2604 94.715 70.1351 108.119 45.7866 108.119C21.4381 108.119 6.31281 94.715 6.31281 73.1373C6.31281 55.1964 16.219 35.7037 29.6041 26.7748C28.9965 25.7409 28.6241 24.5495 28.6241 23.2628C28.6241 20.5509 30.1893 18.2234 32.4445 17.0874L26.465 9.84691C25.6447 8.85288 25.1916 7.59216 25.1916 6.29681C25.1916 3.23853 27.6578 0.75 30.687 0.75H31.9347C34.5469 0.75 37.0131 1.72498 38.9216 3.50695C40.8335 1.72325 43.2843 0.75 45.7866 0.75C48.325 0.75 50.8118 1.75095 52.6534 3.50522C54.5635 1.72325 57.0281 0.75 59.6385 0.75H59.8118C63.4331 0.75 66.3817 3.72342 66.3817 7.38089C66.3817 9.15074 65.6986 10.815 64.4577 12.067L59.3588 17.2121C61.4869 18.3897 62.9492 20.6461 62.9492 23.2628ZM30.6854 4.21345C29.5475 4.21345 28.6225 5.1486 28.6225 6.29675C28.6225 6.78164 28.7924 7.25615 29.103 7.6302L36.2924 16.3357H38.1013L35.6093 10.0512L38.7964 8.7645L41.7981 16.3357H44.0687V7.67696H47.5012V16.3357H49.7718L52.7718 8.76624L55.9589 10.0529L53.4686 16.3357H55.372L62.0293 9.61999C62.6214 9.02254 62.9475 8.22593 62.9475 7.38083C62.9475 5.63349 61.5402 4.21345 59.8102 4.21345H59.6369C57.8039 4.21345 56.0791 4.93386 54.7816 6.24134C53.6488 7.38949 51.6529 7.39122 50.5167 6.2396C47.8977 3.60214 43.5865 3.687 41.1391 6.15475C39.8313 7.47608 37.9228 7.39122 36.7867 6.2396C35.4909 4.93386 33.7661 4.21345 31.9331 4.21345H30.6854ZM35.4887 19.7993H56.0838C57.9768 19.7993 59.5163 21.3527 59.5163 23.2628C59.5163 25.1729 57.9768 26.7263 56.0838 26.7263H35.4887C33.5957 26.7263 32.0562 25.1729 32.0562 23.2628C32.0562 21.3527 33.5957 19.7993 35.4887 19.7993ZM9.74505 73.1374C9.74505 92.8724 23.2193 104.655 45.7864 104.655C68.3534 104.655 81.8277 92.8724 81.8277 73.1374C81.8277 55.9843 72.2681 37.3714 59.4563 29.2582C58.4557 29.8348 57.3161 30.1898 56.0839 30.1898H55.1863L57.6783 36.4744L54.4912 37.7611L51.4895 30.1898H47.5026V37.1169H44.0701V30.1898H40.0833L37.0832 37.7593L33.8962 36.4726L36.3864 30.1898H35.4888C34.2566 30.1898 33.1153 29.8348 32.1147 29.2582C19.3046 37.3714 9.74505 55.986 9.74505 73.1374Z" fill="black"/>
<path d="M61.9692 26.7731L61.3228 26.3926L60.9632 27.0035L61.5529 27.397L61.9692 26.7731ZM29.6041 26.7748L30.0203 27.3987L30.6096 27.0056L30.2507 26.3948L29.6041 26.7748ZM32.4445 17.0874L32.7819 17.7572L33.6212 17.3344L33.0228 16.6098L32.4445 17.0874ZM26.465 9.84691L25.8866 10.3243L25.8868 10.3245L26.465 9.84691ZM38.9216 3.50695L38.4098 4.05514L38.9214 4.53287L39.4332 4.05535L38.9216 3.50695ZM52.6534 3.50522L52.136 4.04827L52.648 4.53593L53.165 4.05364L52.6534 3.50522ZM64.4577 12.067L64.9905 12.595L64.9905 12.595L64.4577 12.067ZM59.3588 17.2121L58.826 16.6841L58.1282 17.3883L58.9956 17.8683L59.3588 17.2121ZM29.103 7.6302L29.6813 7.15262L29.68 7.15104L29.103 7.6302ZM36.2924 16.3357L35.7141 16.8133L35.9391 17.0857H36.2924V16.3357ZM38.1013 16.3357V17.0857H39.2055L38.7985 16.0593L38.1013 16.3357ZM35.6093 10.0512L35.3285 9.35573L34.6374 9.63477L34.9121 10.3277L35.6093 10.0512ZM38.7964 8.7645L39.4936 8.48809L39.2155 7.7865L38.5156 8.06904L38.7964 8.7645ZM41.7981 16.3357L41.1009 16.6122L41.2887 17.0857H41.7981V16.3357ZM44.0687 16.3357V17.0857H44.8187V16.3357H44.0687ZM44.0687 7.67696V6.92696H43.3187V7.67696H44.0687ZM47.5012 7.67696H48.2512V6.92696H47.5012V7.67696ZM47.5012 16.3357H46.7512V17.0857H47.5012V16.3357ZM49.7718 16.3357V17.0857H50.2813L50.4691 16.6121L49.7718 16.3357ZM52.7718 8.76624L53.0526 8.07077L52.3527 7.7882L52.0746 8.4899L52.7718 8.76624ZM55.9589 10.0529L56.6562 10.3293L56.9308 9.63646L56.2397 9.35747L55.9589 10.0529ZM53.4686 16.3357L52.7714 16.0594L52.3646 17.0857H53.4686V16.3357ZM55.372 16.3357V17.0857H55.6846L55.9046 16.8637L55.372 16.3357ZM62.0293 9.61999L62.562 10.148L62.562 10.1479L62.0293 9.61999ZM54.7816 6.24134L54.2492 5.71304L54.2477 5.7146L54.7816 6.24134ZM50.5167 6.2396L51.0506 5.71286L51.0489 5.71114L50.5167 6.2396ZM41.1391 6.15475L40.6066 5.62662L40.606 5.62716L41.1391 6.15475ZM36.7867 6.2396L37.3206 5.71287L37.319 5.71131L36.7867 6.2396ZM59.4563 29.2582L59.8576 28.6245L59.4746 28.382L59.0818 28.6083L59.4563 29.2582ZM55.1863 30.1898V29.4398H54.0821L54.4891 30.4663L55.1863 30.1898ZM57.6783 36.4744L57.959 37.1698L58.6502 36.8908L58.3755 36.1979L57.6783 36.4744ZM54.4912 37.7611L53.794 38.0375L54.0721 38.7391L54.772 38.4565L54.4912 37.7611ZM51.4895 30.1898L52.1867 29.9134L51.9989 29.4398H51.4895V30.1898ZM47.5026 30.1898V29.4398H46.7526V30.1898H47.5026ZM47.5026 37.1169V37.8669H48.2526V37.1169H47.5026ZM44.0701 37.1169H43.3201V37.8669H44.0701V37.1169ZM44.0701 30.1898H44.8201V29.4398H44.0701V30.1898ZM40.0833 30.1898V29.4398H39.5737L39.386 29.9135L40.0833 30.1898ZM37.0832 37.7593L36.8025 38.4548L37.5024 38.7374L37.7805 38.0357L37.0832 37.7593ZM33.8962 36.4726L33.1989 36.1963L32.9243 36.8891L33.6154 37.1681L33.8962 36.4726ZM36.3864 30.1898L37.0837 30.4662L37.4905 29.4398H36.3864V30.1898ZM32.1147 29.2582L32.4892 28.6083L32.0964 28.382L31.7134 28.6245L32.1147 29.2582ZM61.9692 26.7731L62.6155 27.1535C63.2834 26.019 63.6992 24.6975 63.6992 23.2628H62.9492H62.1992C62.1992 24.4015 61.8701 25.4629 61.3228 26.3926L61.9692 26.7731ZM85.2604 73.1373H86.0104C86.0104 54.9721 76.0014 35.2339 62.3854 26.1492L61.9692 26.7731L61.5529 27.397C74.7071 36.1736 84.5104 55.4171 84.5104 73.1373H85.2604ZM45.7866 108.119V108.869C58.0937 108.869 68.156 105.48 75.1516 99.281C82.1578 93.0722 86.0104 84.1115 86.0104 73.1373H85.2604H84.5104C84.5104 83.7408 80.8004 92.2709 74.1568 98.1584C67.5027 104.055 57.828 107.369 45.7866 107.369V108.119ZM6.31281 73.1373H5.5628C5.5628 84.1115 9.41541 93.0722 16.4216 99.281C23.4173 105.48 33.4796 108.869 45.7866 108.869V108.119V107.369C33.7452 107.369 24.0706 104.055 17.4165 98.1584C10.7729 92.2709 7.06281 83.7408 7.06281 73.1373H6.31281ZM29.6041 26.7748L29.1879 26.1509C15.5718 35.2339 5.5628 54.9739 5.5628 73.1373H6.31281H7.06281C7.06281 55.4188 16.8662 36.1736 30.0203 27.3987L29.6041 26.7748ZM28.6241 23.2628H27.8741C27.8741 24.6976 28.2899 26.0189 28.9575 27.1548L29.6041 26.7748L30.2507 26.3948C29.7031 25.463 29.3741 24.4014 29.3741 23.2628H28.6241ZM32.4445 17.0874L32.1071 16.4176C29.6122 17.6743 27.8741 20.253 27.8741 23.2628H28.6241H29.3741C29.3741 20.8487 30.7664 18.7725 32.7819 17.7572L32.4445 17.0874ZM26.465 9.84691L25.8868 10.3245L31.8662 17.5649L32.4445 17.0874L33.0228 16.6098L27.0433 9.36933L26.465 9.84691ZM25.1916 6.29681H24.4416C24.4416 7.76595 24.9551 9.19556 25.8866 10.3243L26.465 9.84691L27.0435 9.36952C26.3343 8.5102 25.9416 7.41838 25.9416 6.29681H25.1916ZM30.687 0.75V-2.563e-06C27.2371 -2.563e-06 24.4416 2.83084 24.4416 6.29681H25.1916H25.9416C25.9416 3.64622 28.0786 1.5 30.687 1.5V0.75ZM31.9347 0.75V-2.563e-06H30.687V0.75V1.5H31.9347V0.75ZM38.9216 3.50695L39.4335 2.95877C37.3864 1.04742 34.7374 -2.563e-06 31.9347 -2.563e-06V0.75V1.5C34.3564 1.5 36.6398 2.40253 38.4098 4.05514L38.9216 3.50695ZM45.7866 0.75V-2.563e-06C43.0885 -2.563e-06 40.4564 1.04936 38.41 2.95855L38.9216 3.50695L39.4332 4.05535C41.2106 2.39714 43.4801 1.5 45.7866 1.5V0.75ZM52.6534 3.50522L53.1707 2.96218C51.1907 1.07602 48.519 -2.563e-06 45.7866 -2.563e-06V0.75V1.5C48.131 1.5 50.433 2.42589 52.136 4.04827L52.6534 3.50522ZM59.6385 0.75V-2.563e-06C56.8377 -2.563e-06 54.1904 1.04563 52.1417 2.9568L52.6534 3.50522L53.165 4.05364C54.9367 2.40087 57.2185 1.5 59.6385 1.5V0.75ZM59.8118 0.75V-2.563e-06H59.6385V0.75V1.5H59.8118V0.75ZM66.3817 7.38089H67.1317C67.1317 3.31558 63.8537 -2.563e-06 59.8118 -2.563e-06V0.75V1.5C63.0126 1.5 65.6317 4.13127 65.6317 7.38089H66.3817ZM64.4577 12.067L64.9905 12.595C66.3712 11.2018 67.1317 9.34751 67.1317 7.38089H66.3817H65.6317C65.6317 8.95397 65.026 10.4282 63.925 11.5391L64.4577 12.067ZM59.3588 17.2121L59.8915 17.74L64.9905 12.595L64.4577 12.067L63.925 11.5391L58.826 16.6841L59.3588 17.2121ZM62.9492 23.2628H63.6992C63.6992 20.3575 62.0746 17.8577 59.7219 16.5558L59.3588 17.2121L58.9956 17.8683C60.8992 18.9216 62.1992 20.9347 62.1992 23.2628H62.9492ZM28.6225 6.29675H29.3725C29.3725 5.55563 29.9689 4.96345 30.6854 4.96345V4.21345V3.46345C29.1261 3.46345 27.8724 4.74157 27.8724 6.29675H28.6225ZM29.103 7.6302L29.68 7.15104C29.4819 6.91257 29.3725 6.60787 29.3725 6.29675H28.6225H27.8724C27.8724 6.95542 28.1028 7.59972 28.526 8.10937L29.103 7.6302ZM36.2924 16.3357L36.8707 15.8582L29.6813 7.15263L29.103 7.6302L28.5247 8.10778L35.7141 16.8133L36.2924 16.3357ZM38.1013 16.3357V15.5857H36.2924V16.3357V17.0857H38.1013V16.3357ZM35.6093 10.0512L34.9121 10.3277L37.4041 16.6122L38.1013 16.3357L38.7985 16.0593L36.3065 9.77474L35.6093 10.0512ZM38.7964 8.7645L38.5156 8.06904L35.3285 9.35573L35.6093 10.0512L35.8901 10.7467L39.0772 9.45997L38.7964 8.7645ZM41.7981 16.3357L42.4953 16.0593L39.4936 8.48809L38.7964 8.7645L38.0992 9.04092L41.1009 16.6122L41.7981 16.3357ZM44.0687 16.3357V15.5857H41.7981V16.3357V17.0857H44.0687V16.3357ZM44.0687 7.67696H43.3187V16.3357H44.0687H44.8187V7.67696H44.0687ZM47.5012 7.67696V6.92696H44.0687V7.67696V8.42696H47.5012V7.67696ZM47.5012 16.3357H48.2512V7.67696H47.5012H46.7512V16.3357H47.5012ZM49.7718 16.3357V15.5857H47.5012V16.3357V17.0857H49.7718V16.3357ZM52.7718 8.76624L52.0746 8.4899L49.0746 16.0594L49.7718 16.3357L50.4691 16.6121L53.4691 9.04257L52.7718 8.76624ZM55.9589 10.0529L56.2397 9.35747L53.0526 8.07077L52.7718 8.76624L52.4911 9.4617L55.6782 10.7484L55.9589 10.0529ZM53.4686 16.3357L54.1659 16.6121L56.6562 10.3293L55.9589 10.0529L55.2617 9.77657L52.7714 16.0594L53.4686 16.3357ZM55.372 16.3357V15.5857H53.4686V16.3357V17.0857H55.372V16.3357ZM62.0293 9.61999L61.4967 9.09198L54.8393 15.8077L55.372 16.3357L55.9046 16.8637L62.562 10.148L62.0293 9.61999ZM62.9475 7.38083H62.1975C62.1975 8.02977 61.9484 8.63617 61.4966 9.09205L62.0293 9.61999L62.562 10.1479C63.2944 9.4089 63.6975 8.42209 63.6975 7.38083H62.9475ZM59.8102 4.21345V4.96345C61.1194 4.96345 62.1975 6.04107 62.1975 7.38083H62.9475H63.6975C63.6975 5.22592 61.961 3.46345 59.8102 3.46345V4.21345ZM59.6369 4.21345V4.96345H59.8102V4.21345V3.46345H59.6369V4.21345ZM54.7816 6.24134L55.3139 6.76963C56.4714 5.60326 58.0049 4.96345 59.6369 4.96345V4.21345V3.46345C57.6029 3.46345 55.6867 4.26446 54.2492 5.71304L54.7816 6.24134ZM50.5167 6.2396L49.9828 6.76634C51.4126 8.21564 53.8891 8.21392 55.3155 6.76807L54.7816 6.24134L54.2477 5.7146C53.4086 6.56506 51.8931 6.5668 51.0506 5.71287L50.5167 6.2396ZM41.1391 6.15475L41.6716 6.68288C43.8254 4.51115 47.6586 4.4258 49.9845 6.76807L50.5167 6.2396L51.0489 5.71114C48.1368 2.77848 43.3475 2.86285 40.6066 5.62662L41.1391 6.15475ZM36.7867 6.2396L36.2528 6.76634C37.6831 8.21612 40.0713 8.29974 41.6721 6.68234L41.1391 6.15475L40.606 5.62716C39.5913 6.65242 38.1626 6.56632 37.3206 5.71287L36.7867 6.2396ZM31.9331 4.21345V4.96345C33.5652 4.96345 35.0987 5.60337 36.2543 6.7679L36.7867 6.2396L37.319 5.71131C35.8831 4.26436 33.9669 3.46345 31.9331 3.46345V4.21345ZM30.6854 4.21345V4.96345H31.9331V4.21345V3.46345H30.6854V4.21345ZM56.0838 19.7993V19.0493H35.4887V19.7993V20.5493H56.0838V19.7993ZM59.5163 23.2628H60.2663C60.2663 20.9448 58.3974 19.0493 56.0838 19.0493V19.7993V20.5493C57.5562 20.5493 58.7663 21.7605 58.7663 23.2628H59.5163ZM56.0838 26.7263V27.4763C58.3974 27.4763 60.2663 25.5808 60.2663 23.2628H59.5163H58.7663C58.7663 24.7651 57.5562 25.9763 56.0838 25.9763V26.7263ZM35.4887 26.7263V27.4763H56.0838V26.7263V25.9763H35.4887V26.7263ZM32.0562 23.2628H31.3062C31.3062 25.5808 33.1752 27.4763 35.4887 27.4763V26.7263V25.9763C34.0163 25.9763 32.8062 24.7651 32.8062 23.2628H32.0562ZM35.4887 19.7993V19.0493C33.1752 19.0493 31.3062 20.9448 31.3062 23.2628H32.0562H32.8062C32.8062 21.7605 34.0163 20.5493 35.4887 20.5493V19.7993ZM45.7864 104.655V103.905C34.6264 103.905 25.8114 100.992 19.7968 95.7324C13.7953 90.4842 10.4951 82.8243 10.4951 73.1374H9.74505H8.99505C8.99505 83.1854 12.4319 91.2845 18.8094 96.8615C25.1737 102.427 34.3793 105.405 45.7864 105.405V104.655ZM81.8277 73.1374H81.0777C81.0777 82.8243 77.7774 90.4842 71.7759 95.7324C65.7613 100.992 56.9464 103.905 45.7864 103.905V104.655V105.405C57.1934 105.405 66.399 102.427 72.7634 96.8615C79.1408 91.2845 82.5777 83.1854 82.5777 73.1374H81.8277ZM59.4563 29.2582L59.0551 29.8918C71.6209 37.8493 81.0777 56.2052 81.0777 73.1374H81.8277H82.5777C82.5777 55.7634 72.9154 36.8935 59.8576 28.6245L59.4563 29.2582ZM56.0839 30.1898V30.9398C57.464 30.9398 58.7315 30.5415 59.8308 29.908L59.4563 29.2582L59.0818 28.6083C58.18 29.1281 57.1683 29.4398 56.0839 29.4398V30.1898ZM55.1863 30.1898V30.9398H56.0839V30.1898V29.4398H55.1863V30.1898ZM57.6783 36.4744L58.3755 36.1979L55.8835 29.9134L55.1863 30.1898L54.4891 30.4663L56.9811 36.7508L57.6783 36.4744ZM54.4912 37.7611L54.772 38.4565L57.959 37.1698L57.6783 36.4744L57.3975 35.7789L54.2104 37.0656L54.4912 37.7611ZM51.4895 30.1898L50.7923 30.4663L53.794 38.0375L54.4912 37.7611L55.1884 37.4846L52.1867 29.9134L51.4895 30.1898ZM47.5026 30.1898V30.9398H51.4895V30.1898V29.4398H47.5026V30.1898ZM47.5026 37.1169H48.2526V30.1898H47.5026H46.7526V37.1169H47.5026ZM44.0701 37.1169V37.8669H47.5026V37.1169V36.3668H44.0701V37.1169ZM44.0701 30.1898H43.3201V37.1169H44.0701H44.8201V30.1898H44.0701ZM40.0833 30.1898V30.9398H44.0701V30.1898V29.4398H40.0833V30.1898ZM37.0832 37.7593L37.7805 38.0357L40.7805 30.4662L40.0833 30.1898L39.386 29.9135L36.386 37.483L37.0832 37.7593ZM33.8962 36.4726L33.6154 37.1681L36.8025 38.4548L37.0832 37.7593L37.364 37.0639L34.1769 35.7772L33.8962 36.4726ZM36.3864 30.1898L35.6892 29.9135L33.1989 36.1963L33.8962 36.4726L34.5934 36.749L37.0837 30.4662L36.3864 30.1898ZM35.4888 30.1898V30.9398H36.3864V30.1898V29.4398H35.4888V30.1898ZM32.1147 29.2582L31.7402 29.908C32.8397 30.5417 34.1089 30.9398 35.4888 30.9398V30.1898V29.4398C34.4043 29.4398 33.3908 29.128 32.4892 28.6083L32.1147 29.2582ZM9.74505 73.1374H10.4951C10.4951 56.207 19.9518 37.8493 32.516 29.8918L32.1147 29.2582L31.7134 28.6245C18.6573 36.8936 8.99505 55.7651 8.99505 73.1374H9.74505Z" fill="black"/>
<path fill-rule="evenodd" clip-rule="evenodd" d="M18.9405 68.645C18.9405 53.8442 30.9819 41.8028 45.7827 41.8028C60.5835 41.8028 72.6249 53.8442 72.6249 68.645C72.6249 83.4458 60.5835 95.4872 45.7827 95.4872C30.9819 95.4872 18.9405 83.4458 18.9405 68.645ZM22.519 68.645C22.519 81.472 32.9552 91.9082 45.7822 91.9082C58.6092 91.9082 69.0454 81.472 69.0454 68.645C69.0454 55.818 58.6092 45.3817 45.7822 45.3817C32.9552 45.3817 22.519 55.818 22.519 68.645Z" fill="black"/>
<path d="M45.7827 41.8028V41.0528C30.5677 41.0528 18.1905 53.43 18.1905 68.645H18.9405H19.6905C19.6905 54.2584 31.3961 42.5528 45.7827 42.5528V41.8028ZM72.6249 68.645H73.3749C73.3749 53.43 60.9977 41.0528 45.7827 41.0528V41.8028V42.5528C60.1693 42.5528 71.8749 54.2584 71.8749 68.645H72.6249ZM45.7827 95.4872V96.2372C60.9977 96.2372 73.3749 83.86 73.3749 68.645H72.6249H71.8749C71.8749 83.0315 60.1693 94.7372 45.7827 94.7372V95.4872ZM18.9405 68.645H18.1905C18.1905 83.86 30.5677 96.2372 45.7827 96.2372V95.4872V94.7372C31.3961 94.7372 19.6905 83.0315 19.6905 68.645H18.9405ZM45.7822 91.9082V91.1582C33.3694 91.1582 23.269 81.0578 23.269 68.645H22.519H21.769C21.769 81.8862 32.541 92.6582 45.7822 92.6582V91.9082ZM69.0454 68.645H68.2954C68.2954 81.0578 58.195 91.1582 45.7822 91.1582V91.9082V92.6582C59.0234 92.6582 69.7954 81.8862 69.7954 68.645H69.0454ZM45.7822 45.3817V46.1317C58.195 46.1317 68.2954 56.2322 68.2954 68.645H69.0454H69.7954C69.7954 55.4038 59.0234 44.6317 45.7822 44.6317V45.3817ZM22.519 68.645H23.269C23.269 56.2322 33.3694 46.1317 45.7822 46.1317V45.3817V44.6317C32.541 44.6317 21.769 55.4038 21.769 68.645H22.519Z" fill="black"/>
<path d="M53.5205 63.3158C53.4152 63.2081 53.2803 63.1544 53.1164 63.1544H50.1098C49.9104 62.1619 49.5353 61.3003 48.9844 60.5707H53.081C53.2454 60.5707 53.3799 60.5169 53.4856 60.4095C53.5906 60.3019 53.6433 60.1642 53.6433 59.9968V58.1663C53.6433 57.9987 53.5906 57.8613 53.4856 57.7536C53.3798 57.6461 53.2453 57.5921 53.0809 57.5921H38.452C38.2879 57.5921 38.1532 57.6461 38.0476 57.7535C37.9424 57.8612 37.8895 57.9987 37.8895 58.1662V60.5525C37.8895 60.708 37.9451 60.8426 38.0565 60.9562C38.1678 61.0698 38.2997 61.1266 38.452 61.1266H41.0016C43.4748 61.1266 45.0456 61.8023 45.7136 63.1541H38.452C38.2879 63.1541 38.153 63.2078 38.0476 63.3155C37.9424 63.4232 37.8895 63.5606 37.8895 63.7282V65.5585C37.8895 65.7259 37.9421 65.8635 38.0476 65.9709C38.1532 66.0787 38.2881 66.1323 38.452 66.1323H45.9601C45.7022 67.1134 45.1014 67.8609 44.1577 68.3753C43.2139 68.8897 41.9687 69.147 40.4213 69.147H38.452C38.2997 69.147 38.1678 69.2038 38.0565 69.3174C37.9451 69.4311 37.8895 69.5657 37.8895 69.721V72C37.8895 72.1557 37.9421 72.2872 38.0476 72.3948C40.2981 74.8349 43.217 78.2497 46.8039 82.6401C46.9095 82.7837 47.0559 82.8554 47.2435 82.8554H50.6721C50.9185 82.8554 51.0886 82.748 51.182 82.5323C51.2992 82.317 51.2763 82.1136 51.1116 81.9222C47.6893 77.6397 44.9989 74.434 43.0413 72.3049C45.034 72.0657 46.6517 71.4077 47.8943 70.3313C49.1367 69.2549 49.8926 67.8551 50.1624 66.1326H53.1164C53.2803 66.1326 53.4152 66.0789 53.5205 65.9712C53.6262 65.8638 53.679 65.7262 53.679 65.5588V63.7287C53.679 63.5609 53.6262 63.4235 53.5205 63.3158Z" fill="black"/>
</svg>
