<svg width="120" height="121" viewBox="0 0 120 121" fill="none" xmlns="http://www.w3.org/2000/svg">
<ellipse cx="58.8135" cy="112.864" rx="48.8137" ry="8.13562" fill="black"/>
<path d="M9.99976 92.6503C9.99976 80.2941 20.0165 70.1524 32.3727 70.1524C44.729 70.1524 54.7457 80.2941 54.7457 92.6503C54.7457 102.635 46.6514 110.83 36.6665 110.83H28.0789C18.0941 110.83 9.99976 102.635 9.99976 92.6503Z" fill="white"/>
<rect x="47.4218" y="2.62663" width="27.6611" height="8.13562" rx="4.06781" fill="#A6C8FF"/>
<path d="M43.1541 89.4169H46.8382V93.101H43.1541V89.4169Z" fill="black"/>
<path fill-rule="evenodd" clip-rule="evenodd" d="M51.63 74.3616C51.782 69.5148 57.1659 68.3856 61.2521 70.9966C73.1553 78.6025 76.9246 55.5813 85.1384 55.6098C89.7377 55.6257 91.1394 61.7171 91.309 66.3134L92.18 89.9268C92.6112 101.618 82.959 111.182 71.2721 110.643L50.5223 109.686L51.63 74.3616Z" fill="#78A9FF"/>
<path d="M17.3676 89.4169H21.0517V93.101H17.3676V89.4169Z" fill="black"/>
<path d="M30.2622 85.7329H33.9462C34.9635 85.7329 35.7882 86.5576 35.7882 87.5749H39.4723C39.4723 84.5229 36.9982 82.0488 33.9462 82.0488V80.2068H30.2622V82.0488C27.2102 82.0488 24.7361 84.5229 24.7361 87.5749C24.7361 90.6269 27.2102 93.101 30.2622 93.101H33.9462C34.9635 93.101 35.7882 93.9257 35.7882 94.943C35.7882 95.9603 34.9635 96.785 33.9462 96.785H30.2622C29.2448 96.785 28.4201 95.9603 28.4201 94.943H24.7361C24.7361 97.995 27.2102 100.469 30.2622 100.469V102.311H33.9462V100.469C36.9982 100.469 39.4723 97.995 39.4723 94.943C39.4723 91.891 36.9982 89.4169 33.9462 89.4169H30.2622C29.2448 89.4169 28.4201 88.5922 28.4201 87.5749C28.4201 86.5576 29.2448 85.7329 30.2622 85.7329Z" fill="black"/>
<path d="M83.6811 32.3141H87.3651C88.3824 32.3141 89.2071 33.1388 89.2071 34.1561H92.8912C92.8912 31.1041 90.4171 28.63 87.3651 28.63V26.788H83.6811V28.63C80.6291 28.63 78.155 31.1041 78.155 34.1561C78.155 37.2081 80.6291 39.6822 83.6811 39.6822H87.3651C88.3824 39.6822 89.2071 40.5069 89.2071 41.5242C89.2071 42.5415 88.3824 43.3662 87.3651 43.3662H83.6811C82.6637 43.3662 81.839 42.5415 81.839 41.5242H78.155C78.155 44.5762 80.6291 47.0503 83.6811 47.0503V48.8923H87.3651V47.0503C90.4171 47.0503 92.8912 44.5762 92.8912 41.5242C92.8912 38.4722 90.4171 35.9981 87.3651 35.9981H83.6811C82.6637 35.9981 81.839 35.1734 81.839 34.1561C81.839 33.1388 82.6637 32.3141 83.6811 32.3141Z" fill="black"/>
<path fill-rule="evenodd" clip-rule="evenodd" d="M21.0543 57.6304L26.6924 70.9966H39.4746L43.1587 57.6304L39.4746 54.8818H35.788L32.1065 57.6304H29.1302L27.9723 54.8818H23.5134L21.0543 57.6304Z" fill="white"/>
<path fill-rule="evenodd" clip-rule="evenodd" d="M94.733 17.7713C102.579 21.3715 107.614 29.2075 107.627 37.8401C107.617 46.4761 102.582 54.3166 94.733 57.9182V102.311C94.7269 107.395 90.607 111.515 85.5229 111.521H22.8939C15.776 111.513 10.0079 105.745 9.99976 98.627V89.4169C10.0105 81.5305 14.2221 74.2472 21.0519 70.304V67.3126H23.2274L19.3259 56.907C19.1138 56.3411 19.1928 55.7072 19.5372 55.2106C19.8816 54.7141 20.4476 54.418 21.0519 54.4184C21.7175 54.3704 22.356 54.1354 22.8939 53.7405C23.9878 53.0133 25.2649 52.6097 26.578 52.5764C27.2203 52.5779 27.8526 52.7359 28.42 53.0369V10.2097C28.4261 5.12565 32.5461 1.00569 37.6302 0.999603H85.5229C90.607 1.00569 94.7269 5.12565 94.733 10.2097V17.7713ZM72.6266 4.68369H50.5223V6.52571C50.5223 7.54304 51.347 8.36774 52.3643 8.36774H70.7846C71.8019 8.36774 72.6266 7.54304 72.6266 6.52571V4.68369ZM23.5111 57.5738C23.9309 57.3849 24.3399 57.1728 24.736 56.9383C25.274 56.5434 25.9125 56.3085 26.5781 56.2604C26.8806 56.2604 27.4517 56.9063 27.8995 57.4127L27.9541 57.4743C28.8964 58.8791 30.4201 59.786 32.1041 59.9445C33.7882 59.786 35.3119 58.8791 36.2542 57.4743L36.3087 57.4127C36.7566 56.9063 37.3277 56.2604 37.6302 56.2604C38.2958 56.3085 38.9343 56.5434 39.4722 56.9383C39.866 57.1725 40.2725 57.3847 40.6898 57.5738L37.0463 67.3126H27.162L23.5111 57.5738ZM13.6815 98.627C13.6875 103.711 17.8075 107.831 22.8916 107.837H41.3119C46.396 107.831 50.5159 103.711 50.522 98.627V89.4169C50.5128 81.9449 45.9955 75.217 39.083 72.38C39.3331 73.1215 39.4636 73.8981 39.4698 74.6807V76.5227H35.7858V74.6807C35.7858 72.646 34.1364 70.9966 32.1017 70.9966C30.0671 70.9966 28.4177 72.646 28.4177 74.6807V76.5227H24.7336V74.6807C24.7398 73.8981 24.8704 73.1215 25.1204 72.38C18.208 75.217 13.6907 81.9449 13.6815 89.4169V98.627ZM91.0488 102.311C91.0488 105.363 88.5747 107.837 85.5228 107.837H50.3198C52.8066 105.418 54.2091 102.096 54.2083 98.6271V89.4169C54.1976 81.5306 49.9859 74.2473 43.1561 70.3041V67.3126H40.9807L44.8821 56.907C45.0942 56.3411 45.0153 55.7072 44.6709 55.2107C44.3265 54.7141 43.7604 54.418 43.1561 54.4184C42.4905 54.3704 41.852 54.1354 41.3141 53.7406C40.2202 53.0133 38.9432 52.6098 37.63 52.5764C35.946 52.7349 34.4223 53.6418 33.48 55.0466L33.4254 55.1082C32.9776 55.6146 32.4065 56.2605 32.104 56.2605V10.2098C32.104 7.1578 34.5781 4.68369 37.63 4.68369H46.8402V6.52571C46.8402 9.57768 49.3143 12.0518 52.3663 12.0518H70.7865C73.8385 12.0518 76.3126 9.57768 76.3126 6.52571V4.68369H85.5228C88.5747 4.68369 91.0488 7.1578 91.0488 10.2098V16.4727C82.081 14.0974 72.5841 17.5746 67.2703 25.179C61.9565 32.7835 61.9565 42.8969 67.2703 50.5013C72.5841 58.1058 82.081 61.583 91.0488 59.2077V102.311ZM67.1043 37.8402C67.1043 48.0135 75.3513 56.2605 85.5246 56.2605C95.6932 56.2493 103.934 48.0088 103.945 37.8402C103.945 27.667 95.6978 19.4199 85.5246 19.4199C75.3513 19.4199 67.1043 27.667 67.1043 37.8402Z" fill="black"/>
<path d="M107.627 37.8401L108.377 37.841L108.377 37.839L107.627 37.8401ZM94.733 17.7713H93.983V18.2523L94.4202 18.4529L94.733 17.7713ZM94.733 57.9182L94.4202 57.2366L93.983 57.4372V57.9182H94.733ZM94.733 102.311L95.483 102.312V102.311H94.733ZM85.5229 111.521V112.271H85.5238L85.5229 111.521ZM22.8939 111.521L22.8931 112.271H22.8939V111.521ZM9.99976 98.627H9.24975L9.24975 98.6279L9.99976 98.627ZM9.99976 89.4169L9.24975 89.4159V89.4169H9.99976ZM21.0519 70.304L21.4269 70.9536L21.8019 70.737V70.304H21.0519ZM21.0519 67.3126V66.5626H20.3019V67.3126H21.0519ZM23.2274 67.3126V68.0626H24.3095L23.9296 67.0493L23.2274 67.3126ZM19.3259 56.907L18.6237 57.1702L18.6237 57.1703L19.3259 56.907ZM19.5372 55.2106L20.1534 55.6381L19.5372 55.2106ZM21.0519 54.4184L21.0515 55.1684L21.0787 55.1684L21.1059 55.1665L21.0519 54.4184ZM22.8939 53.7405L22.4787 53.116L22.4642 53.1256L22.4501 53.1359L22.8939 53.7405ZM26.578 52.5764L26.5798 51.8264L26.5694 51.8263L26.559 51.8266L26.578 52.5764ZM28.42 53.0369L28.0686 53.6995L29.17 54.2836V53.0369H28.42ZM28.42 10.2097L27.67 10.2088V10.2097H28.42ZM37.6302 0.999603V0.2496L37.6293 0.249601L37.6302 0.999603ZM85.5229 0.999603L85.5238 0.249601H85.5229V0.999603ZM94.733 10.2097H95.483V10.2088L94.733 10.2097ZM50.5223 4.68369V3.93368H49.7723V4.68369H50.5223ZM72.6266 4.68369H73.3766V3.93368H72.6266V4.68369ZM24.736 56.9383L25.118 57.5837L25.1499 57.5649L25.1798 57.5429L24.736 56.9383ZM23.5111 57.5738L23.2034 56.8898L22.5619 57.1784L22.8088 57.8371L23.5111 57.5738ZM26.5781 56.2604V55.5104H26.551L26.5241 55.5124L26.5781 56.2604ZM27.8995 57.4127L27.3377 57.9095L27.3378 57.9096L27.8995 57.4127ZM27.9541 57.4743L28.5769 57.0565L28.549 57.0149L28.5158 56.9774L27.9541 57.4743ZM32.1041 59.9445L32.0339 60.6912L32.1041 60.6978L32.1744 60.6912L32.1041 59.9445ZM36.2542 57.4743L35.6925 56.9774L35.6593 57.0149L35.6314 57.0565L36.2542 57.4743ZM36.3087 57.4127L36.8705 57.9096L36.8706 57.9095L36.3087 57.4127ZM37.6302 56.2604L37.6842 55.5124L37.6572 55.5104H37.6302V56.2604ZM39.4722 56.9383L39.0284 57.5429L39.0577 57.5644L39.0888 57.5829L39.4722 56.9383ZM40.6898 57.5738L41.3923 57.8366L41.6379 57.18L40.9994 56.8907L40.6898 57.5738ZM37.0463 67.3126V68.0626H37.5665L37.7488 67.5754L37.0463 67.3126ZM27.162 67.3126L26.4597 67.5759L26.6422 68.0626H27.162V67.3126ZM22.8916 107.837L22.8907 108.587H22.8916V107.837ZM13.6815 98.627H12.9315L12.9315 98.6279L13.6815 98.627ZM41.3119 107.837V108.587H41.3128L41.3119 107.837ZM50.522 98.627L51.272 98.6279V98.627H50.522ZM50.522 89.4169H51.272V89.416L50.522 89.4169ZM39.083 72.38L39.3678 71.6862L37.8471 71.062L38.3723 72.6197L39.083 72.38ZM39.4698 74.6807H40.2199L40.2198 74.6748L39.4698 74.6807ZM39.4698 76.5227V77.2727H40.2198V76.5227H39.4698ZM35.7858 76.5227H35.0358V77.2727H35.7858V76.5227ZM28.4177 76.5227V77.2727H29.1677V76.5227H28.4177ZM24.7336 76.5227H23.9836V77.2727H24.7336V76.5227ZM24.7336 74.6807L23.9836 74.6748V74.6807H24.7336ZM25.1204 72.38L25.8311 72.6197L26.3564 71.062L24.8357 71.6862L25.1204 72.38ZM13.6815 89.4169L12.9315 89.416V89.4169H13.6815ZM50.3198 107.837L49.7968 107.3L48.4731 108.587H50.3198V107.837ZM54.2083 98.6271H53.4583V98.6273L54.2083 98.6271ZM54.2083 89.4169H54.9583L54.9583 89.4159L54.2083 89.4169ZM43.1561 70.3041H42.4061V70.7371L42.7811 70.9536L43.1561 70.3041ZM43.1561 67.3126H43.9061V66.5626H43.1561V67.3126ZM40.9807 67.3126L40.2784 67.0493L39.8985 68.0626H40.9807V67.3126ZM44.8821 56.907L45.5844 57.1703L45.5844 57.1703L44.8821 56.907ZM44.6709 55.2107L45.2872 54.7832V54.7832L44.6709 55.2107ZM43.1561 54.4184L43.1021 55.1665L43.1293 55.1684L43.1566 55.1684L43.1561 54.4184ZM41.3141 53.7406L41.7579 53.136L41.7438 53.1256L41.7293 53.116L41.3141 53.7406ZM37.63 52.5764L37.6491 51.8266L37.6043 51.8255L37.5598 51.8297L37.63 52.5764ZM33.48 55.0466L34.0417 55.5435L34.0749 55.506L34.1028 55.4644L33.48 55.0466ZM33.4254 55.1082L32.8637 54.6112L32.8636 54.6114L33.4254 55.1082ZM32.104 56.2605H31.354V57.0105H32.104V56.2605ZM46.8402 4.68369H47.5902V3.93368H46.8402V4.68369ZM76.3126 4.68369V3.93368H75.5626V4.68369H76.3126ZM91.0488 16.4727L90.8568 17.1977L91.7988 17.4472V16.4727H91.0488ZM67.2703 25.179L67.8851 25.6086H67.8851L67.2703 25.179ZM67.2703 50.5013L67.8851 50.0717H67.8851L67.2703 50.5013ZM91.0488 59.2077H91.7988V58.2332L90.8568 58.4827L91.0488 59.2077ZM85.5246 56.2605V57.0105H85.5254L85.5246 56.2605ZM103.945 37.8402L104.695 37.841V37.8402H103.945ZM107.627 37.8401L108.377 37.839C108.363 28.9136 103.158 20.812 95.0458 17.0896L94.733 17.7713L94.4202 18.4529C102 21.9311 106.864 29.5014 106.877 37.8413L107.627 37.8401ZM94.733 57.9182L95.0458 58.5999C103.161 54.8761 108.367 46.7698 108.377 37.841L107.627 37.8401L106.877 37.8393C106.868 46.1824 102.003 53.757 94.4202 57.2366L94.733 57.9182ZM94.733 102.311H95.483V57.9182H94.733H93.983V102.311H94.733ZM85.5229 111.521L85.5238 112.271C91.0214 112.265 95.4764 107.81 95.483 102.312L94.733 102.311L93.983 102.31C93.9774 106.981 90.1926 110.766 85.522 110.771L85.5229 111.521ZM22.8939 111.521V112.271H85.5229V111.521V110.771H22.8939V111.521ZM9.99976 98.627L9.24975 98.6279C9.25835 106.159 15.3616 112.263 22.8931 112.271L22.8939 111.521L22.8948 110.771C16.1905 110.764 10.7574 105.331 10.7498 98.6262L9.99976 98.627ZM9.99976 89.4169H9.24975V98.627H9.99976H10.7498V89.4169H9.99976ZM21.0519 70.304L20.6769 69.6545C13.6154 73.7315 9.26084 81.2619 9.24975 89.4159L9.99976 89.4169L10.7498 89.4179C10.7601 81.7991 14.8288 74.763 21.4269 70.9536L21.0519 70.304ZM21.0519 67.3126H20.3019V70.304H21.0519H21.8019V67.3126H21.0519ZM23.2274 67.3126V66.5626H21.0519V67.3126V68.0626H23.2274V67.3126ZM19.3259 56.907L18.6237 57.1703L22.5251 67.5759L23.2274 67.3126L23.9296 67.0493L20.0282 56.6437L19.3259 56.907ZM19.5372 55.2106L18.9209 54.7832C18.4362 55.482 18.3252 56.374 18.6237 57.1702L19.3259 56.907L20.0282 56.6437C19.9025 56.3083 19.9493 55.9324 20.1534 55.6381L19.5372 55.2106ZM21.0519 54.4184L21.0524 53.6684C20.202 53.6679 19.4055 54.0845 18.9209 54.7832L19.5372 55.2106L20.1534 55.6381C20.3576 55.3437 20.6932 55.1682 21.0515 55.1684L21.0519 54.4184ZM22.8939 53.7405L22.4501 53.1359C22.026 53.4472 21.5227 53.6325 20.9979 53.6703L21.0519 54.4184L21.1059 55.1665C21.9123 55.1083 22.686 54.8236 23.3377 54.3451L22.8939 53.7405ZM26.578 52.5764L26.559 51.8266C25.1046 51.8635 23.6902 52.3105 22.4787 53.116L22.8939 53.7405L23.3092 54.3651C24.2854 53.716 25.4251 53.3559 26.597 53.3261L26.578 52.5764ZM28.42 53.0369L28.7714 52.3743C28.0963 52.0162 27.344 51.8281 26.5798 51.8264L26.578 52.5764L26.5763 53.3264C27.0966 53.3276 27.6089 53.4556 28.0686 53.6995L28.42 53.0369ZM28.42 10.2097H27.67V53.0369H28.42H29.17V10.2097H28.42ZM37.6302 0.999603L37.6293 0.249601C32.1317 0.256187 27.6766 4.71123 27.67 10.2088L28.42 10.2097L29.17 10.2106C29.1756 5.54006 32.9605 1.7552 37.6311 1.74961L37.6302 0.999603ZM85.5229 0.999603V0.249601H37.6302V0.999603V1.74961H85.5229V0.999603ZM94.733 10.2097L95.483 10.2088C95.4764 4.71124 91.0214 0.256187 85.5238 0.249601L85.5229 0.999603L85.522 1.74961C90.1926 1.7552 93.9774 5.54006 93.983 10.2106L94.733 10.2097ZM94.733 17.7713H95.483V10.2097H94.733H93.983V17.7713H94.733ZM50.5223 4.68369V5.43369H72.6266V4.68369V3.93368H50.5223V4.68369ZM50.5223 6.52571H51.2723V4.68369H50.5223H49.7723V6.52571H50.5223ZM52.3643 8.36774V7.61774C51.7612 7.61774 51.2723 7.12882 51.2723 6.52571H50.5223H49.7723C49.7723 7.95725 50.9328 9.11774 52.3643 9.11774V8.36774ZM70.7846 8.36774V7.61774H52.3643V8.36774V9.11774H70.7846V8.36774ZM72.6266 6.52571H71.8766C71.8766 7.12882 71.3877 7.61774 70.7846 7.61774V8.36774V9.11774C72.2161 9.11774 73.3766 7.95725 73.3766 6.52571H72.6266ZM72.6266 4.68369H71.8766V6.52571H72.6266H73.3766V4.68369H72.6266ZM24.736 56.9383L24.354 56.2929C23.9819 56.5131 23.5977 56.7124 23.2034 56.8898L23.5111 57.5738L23.8188 58.2578C24.2641 58.0575 24.6978 57.8324 25.118 57.5837L24.736 56.9383ZM26.5781 56.2604L26.5241 55.5124C25.7176 55.5706 24.944 55.8553 24.2922 56.3337L24.736 56.9383L25.1798 57.5429C25.6039 57.2316 26.1073 57.0464 26.632 57.0085L26.5781 56.2604ZM27.8995 57.4127L28.4614 56.9159C28.2431 56.669 27.9658 56.3546 27.7009 56.1029C27.5688 55.9774 27.4192 55.8475 27.2641 55.7445C27.1351 55.6588 26.8857 55.5104 26.5781 55.5104V56.2604V57.0104C26.4217 57.0104 26.3572 56.9428 26.4343 56.994C26.4854 57.028 26.5633 57.0911 26.6677 57.1904C26.876 57.3883 27.1082 57.65 27.3377 57.9095L27.8995 57.4127ZM27.9541 57.4743L28.5158 56.9774L28.4613 56.9158L27.8995 57.4127L27.3378 57.9096L27.3923 57.9713L27.9541 57.4743ZM32.1041 59.9445L32.1744 59.1978C30.7146 59.0604 29.3937 58.2742 28.5769 57.0565L27.9541 57.4743L27.3312 57.8921C28.399 59.4839 30.1256 60.5116 32.0339 60.6912L32.1041 59.9445ZM36.2542 57.4743L35.6314 57.0565C34.8145 58.2742 33.4937 59.0604 32.0339 59.1978L32.1041 59.9445L32.1744 60.6912C34.0827 60.5116 35.8093 59.4839 36.8771 57.8921L36.2542 57.4743ZM36.3087 57.4127L35.747 56.9158L35.6925 56.9774L36.2542 57.4743L36.816 57.9713L36.8705 57.9096L36.3087 57.4127ZM37.6302 56.2604V55.5104C37.3226 55.5104 37.0732 55.6588 36.9441 55.7445C36.7891 55.8475 36.6395 55.9774 36.5074 56.1029C36.2425 56.3546 35.9652 56.669 35.7469 56.9159L36.3087 57.4127L36.8706 57.9095C37.1001 57.65 37.3322 57.3883 37.5405 57.1904C37.645 57.0911 37.7229 57.028 37.774 56.994C37.8511 56.9428 37.7866 57.0104 37.6302 57.0104V56.2604ZM39.4722 56.9383L39.916 56.3337C39.2643 55.8553 38.4906 55.5706 37.6842 55.5124L37.6302 56.2604L37.5762 57.0085C38.101 57.0464 38.6043 57.2316 39.0284 57.5429L39.4722 56.9383ZM40.6898 57.5738L40.9994 56.8907C40.6074 56.713 40.2256 56.5137 39.8557 56.2937L39.4722 56.9383L39.0888 57.5829C39.5065 57.8313 39.9376 58.0563 40.3802 58.2569L40.6898 57.5738ZM37.0463 67.3126L37.7488 67.5754L41.3923 57.8366L40.6898 57.5738L39.9874 57.311L36.3438 67.0498L37.0463 67.3126ZM27.162 67.3126V68.0626H37.0463V67.3126V66.5626H27.162V67.3126ZM23.5111 57.5738L22.8088 57.8371L26.4597 67.5759L27.162 67.3126L27.8643 67.0493L24.2134 57.3105L23.5111 57.5738ZM22.8916 107.837L22.8925 107.087C18.2219 107.082 14.4371 103.297 14.4315 98.6261L13.6815 98.627L12.9315 98.6279C12.938 104.126 17.3931 108.581 22.8907 108.587L22.8916 107.837ZM41.3119 107.837V107.087H22.8916V107.837V108.587H41.3119V107.837ZM50.522 98.627L49.772 98.6261C49.7664 103.297 45.9816 107.082 41.311 107.087L41.3119 107.837L41.3128 108.587C46.8104 108.581 51.2654 104.126 51.272 98.6279L50.522 98.627ZM50.522 89.4169H49.772V98.627H50.522H51.272V89.4169H50.522ZM39.083 72.38L38.7983 73.0738C45.4296 75.7954 49.7632 82.2497 49.772 89.4178L50.522 89.4169L51.272 89.416C51.2624 81.6401 46.5614 74.6385 39.3678 71.6862L39.083 72.38ZM39.4698 74.6807L40.2198 74.6748C40.213 73.8127 40.0692 72.9572 39.7937 72.1403L39.083 72.38L38.3723 72.6197C38.597 73.2859 38.7143 73.9836 38.7199 74.6866L39.4698 74.6807ZM39.4698 76.5227H40.2198V74.6807H39.4698H38.7198V76.5227H39.4698ZM35.7858 76.5227V77.2727H39.4698V76.5227V75.7727H35.7858V76.5227ZM35.7858 74.6807H35.0358V76.5227H35.7858H36.5358V74.6807H35.7858ZM32.1017 70.9966V71.7466C33.7222 71.7466 35.0358 73.0603 35.0358 74.6807H35.7858H36.5358C36.5358 72.2318 34.5506 70.2466 32.1017 70.2466V70.9966ZM28.4177 74.6807H29.1677C29.1677 73.0603 30.4813 71.7466 32.1017 71.7466V70.9966V70.2466C29.6529 70.2466 27.6677 72.2318 27.6677 74.6807H28.4177ZM28.4177 76.5227H29.1677V74.6807H28.4177H27.6677V76.5227H28.4177ZM24.7336 76.5227V77.2727H28.4177V76.5227V75.7727H24.7336V76.5227ZM24.7336 74.6807H23.9836V76.5227H24.7336H25.4836V74.6807H24.7336ZM25.1204 72.38L24.4098 72.1403C24.1343 72.9572 23.9905 73.8127 23.9836 74.6748L24.7336 74.6807L25.4836 74.6866C25.4892 73.9836 25.6065 73.2859 25.8311 72.6197L25.1204 72.38ZM13.6815 89.4169L14.4315 89.4178C14.4403 82.2497 18.7739 75.7954 25.4052 73.0738L25.1204 72.38L24.8357 71.6862C17.6421 74.6385 12.941 81.6401 12.9315 89.416L13.6815 89.4169ZM13.6815 98.627H14.4315V89.4169H13.6815H12.9315V98.627H13.6815ZM85.5228 107.837V108.587C88.9889 108.587 91.7988 105.777 91.7988 102.311H91.0488H90.2988C90.2988 104.949 88.1605 107.087 85.5228 107.087V107.837ZM50.3198 107.837V108.587H85.5228V107.837V107.087H50.3198V107.837ZM54.2083 98.6271L53.4583 98.6273C53.4591 101.894 52.1384 105.022 49.7968 107.3L50.3198 107.837L50.8427 108.375C53.4747 105.815 54.9592 102.299 54.9583 98.6269L54.2083 98.6271ZM54.2083 89.4169H53.4583V98.6271H54.2083H54.9583V89.4169H54.2083ZM43.1561 70.3041L42.7811 70.9536C49.3792 74.763 53.4479 81.7992 53.4583 89.418L54.2083 89.4169L54.9583 89.4159C54.9472 81.262 50.5927 73.7315 43.5311 69.6545L43.1561 70.3041ZM43.1561 67.3126H42.4061V70.3041H43.1561H43.9061V67.3126H43.1561ZM40.9807 67.3126V68.0626H43.1561V67.3126V66.5626H40.9807V67.3126ZM44.8821 56.907L44.1798 56.6437L40.2784 67.0493L40.9807 67.3126L41.683 67.5759L45.5844 57.1703L44.8821 56.907ZM44.6709 55.2107L44.0546 55.6381C44.2588 55.9325 44.3056 56.3083 44.1798 56.6438L44.8821 56.907L45.5844 57.1703C45.8829 56.374 45.7718 55.482 45.2872 54.7832L44.6709 55.2107ZM43.1561 54.4184L43.1566 55.1684C43.5148 55.1682 43.8504 55.3437 44.0546 55.6381L44.6709 55.2107L45.2872 54.7832C44.8025 54.0845 44.006 53.6679 43.1557 53.6684L43.1561 54.4184ZM41.3141 53.7406L40.8703 54.3452C41.5221 54.8236 42.2957 55.1083 43.1021 55.1665L43.1561 54.4184L43.2101 53.6704C42.6854 53.6325 42.182 53.4473 41.7579 53.136L41.3141 53.7406ZM37.63 52.5764L37.611 53.3262C38.7829 53.3559 39.9226 53.7161 40.8989 54.3651L41.3141 53.7406L41.7293 53.116C40.5178 52.3105 39.1035 51.8636 37.6491 51.8266L37.63 52.5764ZM33.48 55.0466L34.1028 55.4644C34.9196 54.2467 36.2405 53.4605 37.7003 53.3231L37.63 52.5764L37.5598 51.8297C35.6515 52.0093 33.9249 53.037 32.8571 54.6287L33.48 55.0466ZM33.4254 55.1082L33.9872 55.6051L34.0417 55.5435L33.48 55.0466L32.9182 54.5496L32.8637 54.6112L33.4254 55.1082ZM32.104 56.2605V57.0105C32.4116 57.0105 32.661 56.8621 32.79 56.7764C32.9451 56.6734 33.0947 56.5435 33.2268 56.418C33.4916 56.1663 33.769 55.8519 33.9873 55.605L33.4254 55.1082L32.8636 54.6114C32.6341 54.8709 32.4019 55.1326 32.1936 55.3305C32.0892 55.4298 32.0113 55.4929 31.9602 55.5269C31.8831 55.5781 31.9476 55.5104 32.104 55.5104V56.2605ZM32.104 10.2098H31.354V56.2605H32.104H32.854V10.2098H32.104ZM37.63 4.68369V3.93368C34.1639 3.93368 31.354 6.74358 31.354 10.2098H32.104H32.854C32.854 7.57201 34.9923 5.43369 37.63 5.43369V4.68369ZM46.8402 4.68369V3.93368H37.63V4.68369V5.43369H46.8402V4.68369ZM46.8402 6.52571H47.5902V4.68369H46.8402H46.0902V6.52571H46.8402ZM52.3663 12.0518V11.3018C49.7285 11.3018 47.5902 9.16347 47.5902 6.52571H46.8402H46.0902C46.0902 9.9919 48.9001 12.8018 52.3663 12.8018V12.0518ZM70.7865 12.0518V11.3018H52.3663V12.0518V12.8018H70.7865V12.0518ZM76.3126 6.52571H75.5626C75.5626 9.16347 73.4243 11.3018 70.7865 11.3018V12.0518V12.8018C74.2527 12.8018 77.0626 9.9919 77.0626 6.52571H76.3126ZM76.3126 4.68369H75.5626V6.52571H76.3126H77.0626V4.68369H76.3126ZM85.5228 4.68369V3.93368H76.3126V4.68369V5.43369H85.5228V4.68369ZM91.0488 10.2098H91.7988C91.7988 6.74358 88.9889 3.93368 85.5228 3.93368V4.68369V5.43369C88.1605 5.43369 90.2988 7.57201 90.2988 10.2098H91.0488ZM91.0488 16.4727H91.7988V10.2098H91.0488H90.2988V16.4727H91.0488ZM67.2703 25.179L67.8851 25.6086C73.0186 18.2622 82.1932 14.903 90.8568 17.1977L91.0488 16.4727L91.2409 15.7477C81.9687 13.2918 72.1497 16.887 66.6555 24.7494L67.2703 25.179ZM67.2703 50.5013L67.8851 50.0717C62.7516 42.7253 62.7516 32.955 67.8851 25.6086L67.2703 25.179L66.6555 24.7494C61.1614 32.6119 61.1614 43.0685 66.6555 50.9309L67.2703 50.5013ZM91.0488 59.2077L90.8568 58.4827C82.1932 60.7774 73.0186 57.4182 67.8851 50.0717L67.2703 50.5013L66.6555 50.9309C72.1497 58.7934 81.9687 62.3886 91.2409 59.9327L91.0488 59.2077ZM91.0488 102.311H91.7988V59.2077H91.0488H90.2988V102.311H91.0488ZM85.5246 56.2605V55.5105C75.7656 55.5105 67.8543 47.5992 67.8543 37.8402H67.1043H66.3543C66.3543 48.4277 74.9371 57.0105 85.5246 57.0105V56.2605ZM103.945 37.8402L103.195 37.8394C103.184 47.5944 95.2788 55.4998 85.5238 55.5105L85.5246 56.2605L85.5254 57.0105C96.1076 56.9989 104.683 48.4232 104.695 37.841L103.945 37.8402ZM85.5246 19.4199V20.1699C95.2836 20.1699 103.195 28.0812 103.195 37.8402H103.945H104.695C104.695 27.2528 96.112 18.6699 85.5246 18.6699V19.4199ZM67.1043 37.8402H67.8543C67.8543 28.0812 75.7656 20.1699 85.5246 20.1699V19.4199V18.6699C74.9371 18.6699 66.3543 27.2528 66.3543 37.8402H67.1043Z" fill="black"/>
<path d="M76.7175 64.3193L69.3494 73.5294C68.9067 74.0823 68.8203 74.8402 69.1271 75.4786C69.434 76.117 70.0797 76.523 70.788 76.5227H72.6301V89.4169H76.3141V74.6807C76.3171 73.7169 75.5766 72.9138 74.6158 72.8386L78.1562 68.4178L81.6965 72.8386C80.7357 72.9138 79.9952 73.7169 79.9982 74.6807V93.1009H83.6822V76.5227H85.5243C86.2326 76.523 86.8783 76.117 87.1852 75.4786C87.492 74.8402 87.4056 74.0823 86.9629 73.5294L79.5948 64.3193C79.2324 63.9034 78.7078 63.6648 78.1562 63.6648C77.6046 63.6648 77.08 63.9034 76.7175 64.3193Z" fill="black"/>
<path d="M61.1728 49.5831C60.8104 49.1672 60.2858 48.9286 59.7342 48.9286C59.1826 48.9286 58.658 49.1672 58.2955 49.5831L50.9274 58.7932C50.4847 59.3462 50.3983 60.104 50.7051 60.7424C51.012 61.3808 51.6577 61.7868 52.3661 61.7865H54.2081V74.6807H57.8921V59.9445C57.8951 58.9807 57.1546 58.1776 56.1938 58.1024L59.7342 53.6816L63.2745 58.1024C62.3137 58.1776 61.5733 58.9807 61.5762 59.9445V78.3647H65.2602V61.7865H67.1023C67.8106 61.7868 68.4564 61.3808 68.7632 60.7424C69.07 60.104 68.9836 59.3462 68.5409 58.7932L61.1728 49.5831Z" fill="black"/>
<path d="M54.024 33.1117C54.3311 32.4735 54.2451 31.7159 53.803 31.1628L46.4349 21.9527C46.0725 21.5368 45.5478 21.2982 44.9962 21.2982C44.4447 21.2982 43.92 21.5368 43.5576 21.9527L36.1895 31.1628C35.7466 31.716 35.6603 32.4742 35.9676 33.1128C36.2749 33.7514 36.9213 34.1571 37.63 34.1561H39.472V47.0503H43.1561V32.3141C43.159 31.3503 42.4185 30.5472 41.4577 30.472L44.9981 26.0512L48.5385 30.472C47.5776 30.5472 46.8372 31.3503 46.8401 32.3141V50.7343H50.5242V34.1561H52.3662C53.0735 34.1551 53.7178 33.7492 54.024 33.1117Z" fill="black"/>
<path d="M61.5764 82.0488H65.2604V85.7329H61.5764V82.0488Z" fill="black"/>
<path d="M61.5764 89.4169H65.2604V93.101H61.5764V89.4169Z" fill="black"/>
<path d="M79.9952 96.785H83.6792V100.469H79.9952V96.785Z" fill="black"/>
<path d="M72.6268 93.1011H76.3108V96.7851H72.6268V93.1011Z" fill="black"/>
</svg>
